<svg width="100" height="100" viewBox="0 0 100 100" fill="none" xmlns="http://www.w3.org/2000/svg">
<path d="M96.5518 7.75879H3.44824C1.54375 7.75879 0 9.30273 0 11.207V66.3795H100V11.207C100 9.30273 98.4563 7.75879 96.5518 7.75879ZM94.8275 23.276V61.207H5.17246V23.276V12.9313H94.8275V23.276Z" fill="#34495E"/>
<path d="M5.17188 61.2074H94.827V23.2764H5.17188V61.2074ZM75.8615 31.8971V30.1729C75.8615 29.2207 76.6336 28.4486 77.5857 28.4486H87.9307C88.8828 28.4486 89.6549 29.2207 89.6549 30.1729V31.8971V54.3109C89.6549 55.2631 88.8828 56.0352 87.9307 56.0352H77.5857C76.6336 56.0352 75.8615 55.2631 75.8615 54.3109V31.8971ZM56.8959 31.8971V30.1729C56.8959 29.2207 57.668 28.4486 58.6201 28.4486H68.965C69.9172 28.4486 70.6893 29.2207 70.6893 30.1729V31.8971V54.3109C70.6893 55.2631 69.9172 56.0352 68.965 56.0352H58.6201C57.668 56.0352 56.8959 55.2631 56.8959 54.3109V31.8971ZM37.9305 31.8971V30.1729C37.9305 29.2207 38.7025 28.4486 39.6547 28.4486H49.9994C50.9516 28.4486 51.7236 29.2207 51.7236 30.1729V31.8971V54.3109C51.7236 55.2631 50.9516 56.0352 49.9994 56.0352H39.6545C38.7023 56.0352 37.9303 55.2631 37.9303 54.3109V31.8971H37.9305ZM10.3443 31.8971V30.1729C10.3443 29.2207 11.1164 28.4486 12.0686 28.4486H31.034C31.9861 28.4486 32.7582 29.2207 32.7582 30.1729V31.8971V54.3109C32.7582 55.2631 31.9861 56.0352 31.034 56.0352H12.0684C11.1162 56.0352 10.3441 55.2631 10.3441 54.3109V31.8971H10.3443Z" fill="white"/>
<path d="M0 73.2764C0 75.1807 1.54375 76.7246 3.44824 76.7246H36.2068H63.793H96.5516C98.4561 76.7246 99.9998 75.1807 99.9998 73.2764V66.3799H0V73.2764ZM50 68.966C51.4283 68.966 52.5861 70.124 52.5861 71.5521C52.5861 72.9803 51.4281 74.1383 50 74.1383C48.5717 74.1383 47.4139 72.9803 47.4139 71.5521C47.4139 70.124 48.5717 68.966 50 68.966Z" fill="#BEC8DC"/>
<path d="M34.6953 88.7936H65.2988L64.2213 80.1729H35.7729L34.6953 88.7936Z" fill="#AFBBD0"/>
<path d="M34.482 88.793C33.5299 88.793 32.7578 89.565 32.7578 90.5172C32.7578 91.4693 33.5299 92.2414 34.482 92.2414H65.5166C66.4688 92.2414 67.2408 91.4693 67.2408 90.5172C67.2408 89.565 66.4688 88.793 65.5166 88.793H65.3012H34.6977H34.482Z" fill="#BEC8DC"/>
<path d="M35.7734 80.1729H64.2219L63.7908 76.7246H36.2045L35.7734 80.1729Z" fill="#7A869A"/>
<path d="M5.17188 23.2764H94.827V12.9316H5.17188V23.2764ZM82.758 16.3799H89.6545C90.6066 16.3799 91.3787 17.152 91.3787 18.1041C91.3787 19.0563 90.6066 19.8283 89.6545 19.8283H82.758C81.8059 19.8283 81.0338 19.0563 81.0338 18.1041C81.034 17.152 81.8059 16.3799 82.758 16.3799ZM68.9648 16.3799H75.8613C76.8135 16.3799 77.5855 17.152 77.5855 18.1041C77.5855 19.0563 76.8135 19.8283 75.8613 19.8283H68.9648C68.0127 19.8283 67.2406 19.0563 67.2406 18.1041C67.2408 17.152 68.0127 16.3799 68.9648 16.3799ZM55.1719 16.3799H62.0684C63.0205 16.3799 63.7926 17.152 63.7926 18.1041C63.7926 19.0563 63.0205 19.8283 62.0684 19.8283H55.1719C54.2197 19.8283 53.4477 19.0563 53.4477 18.1041C53.4477 17.152 54.2197 16.3799 55.1719 16.3799ZM41.3787 16.3799H48.2752C49.2273 16.3799 49.9994 17.152 49.9994 18.1041C49.9994 19.0563 49.2273 19.8283 48.2752 19.8283H41.3787C40.4266 19.8283 39.6545 19.0563 39.6545 18.1041C39.6545 17.152 40.4266 16.3799 41.3787 16.3799ZM27.5855 16.3799H34.482C35.4342 16.3799 36.2062 17.152 36.2062 18.1041C36.2062 19.0563 35.4342 19.8283 34.482 19.8283H27.5855C26.6334 19.8283 25.8613 19.0563 25.8613 18.1041C25.8615 17.152 26.6334 16.3799 27.5855 16.3799ZM10.3443 16.3799H20.6893C21.6414 16.3799 22.4135 17.152 22.4135 18.1041C22.4135 19.0563 21.6414 19.8283 20.6893 19.8283H10.3443C9.39219 19.8283 8.62012 19.0563 8.62012 18.1041C8.62012 17.152 9.39199 16.3799 10.3443 16.3799Z" fill="#7BD890"/>
<path d="M10.3414 19.8273H20.6863C21.6385 19.8273 22.4105 19.0553 22.4105 18.1031C22.4105 17.151 21.6385 16.3789 20.6863 16.3789H10.3414C9.38926 16.3789 8.61719 17.151 8.61719 18.1031C8.61719 19.0555 9.38906 19.8273 10.3414 19.8273Z" fill="#FFB74C"/>
<path d="M27.5836 19.8273H34.4801C35.4322 19.8273 36.2043 19.0553 36.2043 18.1031C36.2043 17.151 35.4322 16.3789 34.4801 16.3789H27.5836C26.6314 16.3789 25.8594 17.151 25.8594 18.1031C25.8596 19.0555 26.6314 19.8273 27.5836 19.8273Z" fill="#35C768"/>
<path d="M41.3805 19.8273H48.277C49.2291 19.8273 50.0012 19.0553 50.0012 18.1031C50.0012 17.151 49.2291 16.3789 48.277 16.3789H41.3805C40.4283 16.3789 39.6562 17.151 39.6562 18.1031C39.6562 19.0555 40.4283 19.8273 41.3805 19.8273Z" fill="#35C768"/>
<path d="M55.1695 19.8273H62.066C63.0182 19.8273 63.7902 19.0553 63.7902 18.1031C63.7902 17.151 63.0182 16.3789 62.066 16.3789H55.1695C54.2174 16.3789 53.4453 17.151 53.4453 18.1031C53.4453 19.0555 54.2174 19.8273 55.1695 19.8273Z" fill="#35C768"/>
<path d="M68.9664 19.8273H75.8629C76.815 19.8273 77.5871 19.0553 77.5871 18.1031C77.5871 17.151 76.815 16.3789 75.8629 16.3789H68.9664C68.0143 16.3789 67.2422 17.151 67.2422 18.1031C67.2424 19.0555 68.0143 19.8273 68.9664 19.8273Z" fill="#35C768"/>
<path d="M82.7555 19.8273H89.652C90.6041 19.8273 91.3762 19.0553 91.3762 18.1031C91.3762 17.151 90.6041 16.3789 89.652 16.3789H82.7555C81.8033 16.3789 81.0312 17.151 81.0312 18.1031C81.0314 19.0555 81.8033 19.8273 82.7555 19.8273Z" fill="#35C768"/>
<path d="M12.068 56.0346H31.0334C31.9855 56.0346 32.7576 55.2625 32.7576 54.3104V31.8965C32.7576 32.8486 31.9855 33.6207 31.0334 33.6207H12.068C11.1158 33.6207 10.3438 32.8486 10.3438 31.8965V54.3104C10.3439 55.2625 11.1158 56.0346 12.068 56.0346Z" fill="#DEE3ED"/>
<path d="M39.6539 56.0346H49.9988C50.951 56.0346 51.723 55.2625 51.723 54.3104V31.8965C51.723 32.8486 50.951 33.6207 49.9988 33.6207H39.6539C38.7018 33.6207 37.9297 32.8486 37.9297 31.8965V54.3104C37.9299 55.2625 38.7018 56.0346 39.6539 56.0346Z" fill="#DEE3ED"/>
<path d="M58.6227 56.0346H68.9676C69.9197 56.0346 70.6918 55.2625 70.6918 54.3104V31.8965C70.6918 32.8486 69.9197 33.6207 68.9676 33.6207H58.6227C57.6705 33.6207 56.8984 32.8486 56.8984 31.8965V54.3104C56.8984 55.2625 57.6705 56.0346 58.6227 56.0346Z" fill="#DEE3ED"/>
<path d="M77.5836 56.0346H87.9285C88.8807 56.0346 89.6527 55.2625 89.6527 54.3104V31.8965C89.6527 32.8486 88.8807 33.6207 87.9285 33.6207H77.5836C76.6314 33.6207 75.8594 32.8486 75.8594 31.8965V54.3104C75.8596 55.2625 76.6314 56.0346 77.5836 56.0346Z" fill="#DEE3ED"/>
<path d="M12.068 33.6209H31.0334C31.9855 33.6209 32.7576 32.8488 32.7576 31.8967V30.1725C32.7576 29.2203 31.9855 28.4482 31.0334 28.4482H12.068C11.1158 28.4482 10.3438 29.2203 10.3438 30.1725V31.8967C10.3439 32.8488 11.1158 33.6209 12.068 33.6209Z" fill="#FFB74C"/>
<path d="M39.6539 33.6209H49.9988C50.951 33.6209 51.723 32.8488 51.723 31.8967V30.1725C51.723 29.2203 50.951 28.4482 49.9988 28.4482H39.6539C38.7018 28.4482 37.9297 29.2203 37.9297 30.1725V31.8967C37.9299 32.8488 38.7018 33.6209 39.6539 33.6209Z" fill="#5199FF"/>
<path d="M58.6227 33.6209H68.9676C69.9197 33.6209 70.6918 32.8488 70.6918 31.8967V30.1725C70.6918 29.2203 69.9197 28.4482 68.9676 28.4482H58.6227C57.6705 28.4482 56.8984 29.2203 56.8984 30.1725V31.8967C56.8984 32.8488 57.6705 33.6209 58.6227 33.6209Z" fill="#9FE2AC"/>
<path d="M77.5836 33.6209H87.9285C88.8807 33.6209 89.6527 32.8488 89.6527 31.8967V30.1725C89.6527 29.2203 88.8807 28.4482 87.9285 28.4482H77.5836C76.6314 28.4482 75.8594 29.2203 75.8594 30.1725V31.8967C75.8596 32.8488 76.6314 33.6209 77.5836 33.6209Z" fill="#34495E"/>
<path d="M50.0002 74.1381C51.4285 74.1381 52.5863 72.9802 52.5863 71.552C52.5863 70.1237 51.4285 68.9658 50.0002 68.9658C48.5719 68.9658 47.4141 70.1237 47.4141 71.552C47.4141 72.9802 48.5719 74.1381 50.0002 74.1381Z" fill="#7A869A"/>
</svg>
